# xmcd
#
# Track frame offsets:
#	150
#	12120
#	25362
#	36495
#	47487
#	59300
#	69920
#	81282
#	94805
#	105112
#	119247
#	131647
#	144397
#	156935
#	167490
#	179652
#
# Disc length: 2539 seconds
#
# Revision: 0
# Processed by: cddbd v1.4PL0 Copyright (c) Steve Scherf et al.
# Submitted via: dBpowerAMP V4.0
#
DISCID=d709e910
DTITLE=Lightnin' Slim - The Best Of Lightnin' Slim
DYEAR=1999
DGENRE=General Blues
TTITLE0=Have Your Way
TTITLE1=Bad Luck And Trouble
TTITLE2=Love Me Mama
TTITLE3=I'm A Rollin' Stone
TTITLE4=It's Mighty Crazy
TTITLE5=Hoo Doo Blues
TTITLE6=Rooster Blues
TTITLE7=Nothin' But The Devil
TTITLE8=Cool Down Baby
TTITLE9=Somebody Knockin'
TTITLE10=Hello Mary Lee
TTITLE11=I'm Tired Waitin' Baby
TTITLE12=You're Old Enough To Understand
TTITLE13=Mind Your Own Business
TTITLE14=Winter Time Blues
TTITLE15=I'm Evil
EXTD=submitted by william hale
EXTT0=
EXTT1=
EXTT2=
EXTT3=
EXTT4=
EXTT5=
EXTT6=
EXTT7=
EXTT8=
EXTT9=
EXTT10=
EXTT11=
EXTT12=
EXTT13=
EXTT14=
EXTT15=
PLAYORDER=
